<svg width="12" height="13" viewBox="0 0 12 13" fill="none" xmlns="http://www.w3.org/2000/svg">
<path d="M0.146631 1.35463C0.100144 1.30814 0.0632674 1.25295 0.0381083 1.19221C0.0129493 1.13148 4.8983e-10 1.06638 0 1.00063C-4.8983e-10 0.934888 0.0129493 0.869788 0.0381083 0.809048C0.0632674 0.748309 0.100144 0.693119 0.146631 0.646631C0.193119 0.600144 0.248309 0.563267 0.309048 0.538108C0.369788 0.512949 0.434888 0.5 0.500632 0.5C0.566375 0.5 0.631476 0.512949 0.692215 0.538108C0.752954 0.563267 0.808144 0.600144 0.854632 0.646631L6.00063 5.79363L11.1466 0.646631C11.1931 0.600144 11.2483 0.563267 11.309 0.538108C11.3698 0.512949 11.4349 0.5 11.5006 0.5C11.5664 0.5 11.6315 0.512949 11.6922 0.538108C11.753 0.563267 11.8081 0.600144 11.8546 0.646631C11.9011 0.693119 11.938 0.748309 11.9632 0.809048C11.9883 0.869788 12.0013 0.934888 12.0013 1.00063C12.0013 1.06638 11.9883 1.13148 11.9632 1.19221C11.938 1.25295 11.9011 1.30814 11.8546 1.35463L6.70763 6.50063L11.8546 11.6466C11.9011 11.6931 11.938 11.7483 11.9632 11.809C11.9883 11.8698 12.0013 11.9349 12.0013 12.0006C12.0013 12.0664 11.9883 12.1315 11.9632 12.1922C11.938 12.253 11.9011 12.3081 11.8546 12.3546C11.8081 12.4011 11.753 12.438 11.6922 12.4632C11.6315 12.4883 11.5664 12.5013 11.5006 12.5013C11.4349 12.5013 11.3698 12.4883 11.309 12.4632C11.2483 12.438 11.1931 12.4011 11.1466 12.3546L6.00063 7.20763L0.854632 12.3546C0.808144 12.4011 0.752954 12.438 0.692215 12.4632C0.631476 12.4883 0.566375 12.5013 0.500632 12.5013C0.434888 12.5013 0.369788 12.4883 0.309048 12.4632C0.248309 12.438 0.193119 12.4011 0.146631 12.3546C0.100144 12.3081 0.0632674 12.253 0.0381083 12.1922C0.0129493 12.1315 0 12.0664 0 12.0006C0 11.9349 0.0129493 11.8698 0.0381083 11.809C0.0632674 11.7483 0.100144 11.6931 0.146631 11.6466L5.29363 6.50063L0.146631 1.35463Z" fill="black"/>
</svg>
