<svg width="12" height="12" viewBox="0 0 12 12" fill="none" xmlns="http://www.w3.org/2000/svg">
<path d="M5.99156 0.164062C2.77156 0.164062 0.164062 2.7774 0.164062 5.9974C0.164062 9.2174 2.77156 11.8307 5.99156 11.8307C9.2174 11.8307 11.8307 9.2174 11.8307 5.9974C11.8307 2.7774 9.2174 0.164062 5.99156 0.164062ZM5.9974 10.6641C3.41906 10.6641 1.33073 8.57573 1.33073 5.9974C1.33073 3.41906 3.41906 1.33073 5.9974 1.33073C8.57573 1.33073 10.6641 3.41906 10.6641 5.9974C10.6641 8.57573 8.57573 10.6641 5.9974 10.6641ZM5.86906 3.08073H5.83406C5.60073 3.08073 5.41406 3.2674 5.41406 3.50073V6.25406C5.41406 6.45823 5.51906 6.65073 5.6999 6.75573L8.12073 8.20823C8.31906 8.3249 8.57573 8.26656 8.6924 8.06823C8.72169 8.021 8.74117 7.96835 8.74969 7.91343C8.75821 7.85851 8.75559 7.80243 8.74198 7.74855C8.72837 7.69466 8.70406 7.64406 8.67048 7.59977C8.63691 7.55548 8.59477 7.51839 8.54656 7.49073L6.28906 6.14906V3.50073C6.28906 3.2674 6.1024 3.08073 5.86906 3.08073Z" fill="white"/>
</svg>
