<svg width="23" height="16" viewBox="0 0 23 16" fill="none" xmlns="http://www.w3.org/2000/svg">
<path d="M6 16.0016C4.48333 16.0016 3.1875 15.4766 2.1125 14.4266C1.0375 13.3766 0.5 12.0932 0.5 10.5766C0.5 9.27656 0.891667 8.11823 1.675 7.10156C2.45833 6.0849 3.48333 5.4349 4.75 5.15156C5.03333 3.95156 5.74167 2.8099 6.875 1.72656C8.00833 0.643229 9.21667 0.101562 10.5 0.101562C11.05 0.101562 11.5208 0.297396 11.9125 0.689063C12.3042 1.08073 12.5 1.55156 12.5 2.10156V8.15156L13.4 7.27656C13.5833 7.09323 13.8125 7.00156 14.0875 7.00156C14.3625 7.00156 14.6 7.10156 14.8 7.30156C14.9833 7.4849 15.075 7.71823 15.075 8.00156C15.075 8.2849 14.9833 8.51823 14.8 8.70156L12.2 11.3016C12.1 11.4016 11.9917 11.4724 11.875 11.5141C11.7583 11.5557 11.6333 11.5766 11.5 11.5766C11.3667 11.5766 11.2417 11.5557 11.125 11.5141C11.0083 11.4724 10.9 11.4016 10.8 11.3016L8.2 8.70156C8.01667 8.51823 7.92083 8.28906 7.9125 8.01406C7.90417 7.73906 8 7.50156 8.2 7.30156C8.38333 7.11823 8.6125 7.0224 8.8875 7.01406C9.1625 7.00573 9.4 7.09323 9.6 7.27656L10.5 8.15156V2.10156C9.23333 2.3349 8.25 2.9474 7.55 3.93906C6.85 4.93073 6.5 5.95156 6.5 7.00156H6C5.03333 7.00156 4.20833 7.34323 3.525 8.02656C2.84167 8.7099 2.5 9.5349 2.5 10.5016C2.5 11.4682 2.84167 12.2932 3.525 12.9766C4.20833 13.6599 5.03333 14.0016 6 14.0016H18C18.7 14.0016 19.2917 13.7599 19.775 13.2766C20.2583 12.7932 20.5 12.2016 20.5 11.5016C20.5 10.8016 20.2583 10.2099 19.775 9.72656C19.2917 9.24323 18.7 9.00156 18 9.00156H16.5V7.00156C16.5 6.20156 16.3167 5.45573 15.95 4.76406C15.5833 4.0724 15.1 3.4849 14.5 3.00156V0.676562C15.7333 1.2599 16.7083 2.1224 17.425 3.26406C18.1417 4.40573 18.5 5.65156 18.5 7.00156C19.65 7.1349 20.6042 7.63073 21.3625 8.48906C22.1208 9.3474 22.5 10.3516 22.5 11.5016C22.5 12.7516 22.0625 13.8141 21.1875 14.6891C20.3125 15.5641 19.25 16.0016 18 16.0016H6Z" fill="#FF8E29"/>
</svg>
