<svg width="31" height="15" viewBox="0 0 31 15" fill="none" xmlns="http://www.w3.org/2000/svg">
<path d="M5.675 2.18802L10.5896 7.08802C10.6479 7.14635 10.6891 7.20955 10.7133 7.2776C10.7378 7.34566 10.75 7.41858 10.75 7.49635C10.75 7.57413 10.7378 7.64705 10.7133 7.7151C10.6891 7.78316 10.6479 7.84635 10.5896 7.90469L5.675 12.8193C5.53889 12.9554 5.36875 13.0234 5.16458 13.0234C4.96042 13.0234 4.78542 12.9505 4.63958 12.8047C4.49375 12.6589 4.42083 12.4887 4.42083 12.2943C4.42083 12.0998 4.49375 11.9297 4.63958 11.7839L8.92708 7.49635L4.63958 3.20885C4.50347 3.07274 4.43542 2.90513 4.43542 2.70602C4.43542 2.50652 4.50833 2.33385 4.65417 2.18802C4.8 2.04219 4.97014 1.96927 5.16458 1.96927C5.35903 1.96927 5.52917 2.04219 5.675 2.18802Z" fill="#FF8B1F"/>
<path d="M13.675 2.18802L18.5896 7.08802C18.6479 7.14635 18.6891 7.20955 18.7133 7.2776C18.7378 7.34566 18.75 7.41858 18.75 7.49635C18.75 7.57413 18.7378 7.64705 18.7133 7.7151C18.6891 7.78316 18.6479 7.84635 18.5896 7.90469L13.675 12.8193C13.5389 12.9554 13.3688 13.0234 13.1646 13.0234C12.9604 13.0234 12.7854 12.9505 12.6396 12.8047C12.4938 12.6589 12.4208 12.4887 12.4208 12.2943C12.4208 12.0998 12.4938 11.9297 12.6396 11.7839L16.9271 7.49635L12.6396 3.20885C12.5035 3.07274 12.4354 2.90513 12.4354 2.70602C12.4354 2.50652 12.5083 2.33385 12.6542 2.18802C12.8 2.04219 12.9701 1.96927 13.1646 1.96927C13.359 1.96927 13.5292 2.04219 13.675 2.18802Z" fill="#FF8B1F"/>
<path d="M21.675 2.18802L26.5896 7.08802C26.6479 7.14635 26.6891 7.20955 26.7133 7.2776C26.7378 7.34566 26.75 7.41858 26.75 7.49635C26.75 7.57413 26.7378 7.64705 26.7133 7.7151C26.6891 7.78316 26.6479 7.84635 26.5896 7.90469L21.675 12.8193C21.5389 12.9554 21.3688 13.0234 21.1646 13.0234C20.9604 13.0234 20.7854 12.9505 20.6396 12.8047C20.4938 12.6589 20.4208 12.4887 20.4208 12.2943C20.4208 12.0998 20.4938 11.9297 20.6396 11.7839L24.9271 7.49635L20.6396 3.20885C20.5035 3.07274 20.4354 2.90513 20.4354 2.70602C20.4354 2.50652 20.5083 2.33385 20.6542 2.18802C20.8 2.04219 20.9701 1.96927 21.1646 1.96927C21.359 1.96927 21.5292 2.04219 21.675 2.18802Z" fill="#FF8B1F"/>
</svg>
