<svg width="28" height="28" viewBox="0 0 28 28" fill="none" xmlns="http://www.w3.org/2000/svg">
<path d="M3.91335 28C2.82292 28 1.89808 27.6204 1.13885 26.8612C0.379617 26.1019 0 25.1771 0 24.0866V3.91335C0 2.82292 0.379617 1.89808 1.13885 1.13885C1.89808 0.379617 2.82292 0 3.91335 0H24.0866C25.1771 0 26.1019 0.379617 26.8612 1.13885C27.6204 1.89808 28 2.82292 28 3.91335V24.0866C28 25.1771 27.6204 26.1019 26.8612 26.8612C26.1019 27.6204 25.1771 28 24.0866 28H3.91335ZM11.87 19.8877C12.1225 19.8877 12.3662 19.843 12.6011 19.7536C12.836 19.6643 13.0482 19.5249 13.2376 19.3355L21.305 11.2681C21.6592 10.9139 21.8363 10.4842 21.8363 9.97914C21.8363 9.47405 21.6469 9.03211 21.2681 8.6533C20.9138 8.29909 20.4754 8.12198 19.9526 8.12198C19.4299 8.12198 18.9914 8.29909 18.6372 8.6533L11.87 15.4205L9.20069 12.7512C8.84647 12.397 8.41682 12.2199 7.91173 12.2199C7.40664 12.2199 6.96469 12.4093 6.58589 12.7881C6.23167 13.1423 6.05456 13.5843 6.05456 14.114C6.05456 14.6437 6.23167 15.0856 6.58589 15.4398L10.5024 19.3355C10.6918 19.5249 10.904 19.6643 11.1388 19.7536C11.3737 19.843 11.6174 19.8877 11.87 19.8877Z" fill="#FF8B1F"/>
</svg>
