<svg width="150" height="150" viewBox="0 0 150 150" fill="none" xmlns="http://www.w3.org/2000/svg">
<circle opacity="0.2" cx="75" cy="75" r="74.5351" stroke="#FF8B1F" stroke-width="0.929752"/>
<circle opacity="0.6" cx="75.3042" cy="75.3042" r="68.0269" stroke="#FF8B1F" stroke-width="0.929752"/>
<circle opacity="0.8" cx="75.3115" cy="75.3115" r="60.5888" stroke="#FF8B1F" stroke-width="0.929752"/>
<circle cx="75.6157" cy="75.6157" r="53.6157" fill="#FF8B1F"/>
<path d="M65.6 75H84.8V70.2H65.6V75ZM65.6 65.4H84.8V60.6H65.6V65.4ZM94.28 95.34L84.56 82.68C83.88 81.76 83.04 81.05 82.04 80.55C81.04 80.05 79.96 79.8 78.8 79.8H56V55.8C56 54.48 56.47 53.35 57.41 52.41C58.35 51.47 59.48 51 60.8 51H89.6C90.92 51 92.05 51.47 92.99 52.41C93.93 53.35 94.4 54.48 94.4 55.8V94.2C94.4 94.4 94.39 94.59 94.37 94.77C94.35 94.95 94.32 95.14 94.28 95.34ZM60.8 99C59.48 99 58.35 98.53 57.41 97.59C56.47 96.65 56 95.52 56 94.2V84.6H78.8C79.2 84.6 79.57 84.69 79.91 84.87C80.25 85.05 80.54 85.3 80.78 85.62L90.86 98.82C90.66 98.9 90.45 98.95 90.23 98.97C90.01 98.99 89.8 99 89.6 99H60.8Z" fill="white"/>
</svg>
